# AST/ASF file generated using VICON BodyLanguage
# -----------------------------------------------
:version 1.10
:name VICON
:units
  mass 1.0
  length 0.45
  angle deg
:documentation
   .ast/.asf automatically generated from VICON data using
   VICON BodyBuilder and BodyLanguage model FoxedUp or BRILLIANT.MOD
:root
   order TX TY TZ RX RY RZ
   axis XYZ
   position 0 0 0  
   orientation 0 0 0 
:bonedata
  begin
     id 1 
     name lhipjoint
     direction 0.62366 -0.717238 0.310833 
     length 2.53602 
     axis 0 0 0  XYZ
  end
  begin
     id 2 
     name lfemur
     direction 0.34202 -0.939693 0  
     length 7.40817  
     axis 0 0 20  XYZ
    dof rx ry rz
    limits (-160.0 20.0)
           (-70.0 70.0)
           (-60.0 70.0)
  end
  begin
     id 3 
     name ltibia
     direction 0.34202 -0.939693 0   
     length 7.7045   
     axis 0 0 20   XYZ
    dof rx
    limits (-10.0 170.0)
  end
  begin
     id 4 
     name lfoot
     direction 0.0673888 -0.185149 0.980397   
     length 2.09456   
     axis -90 7.62852e-016 20   XYZ
    dof rx rz
    limits (-45.0 90.0)
           (-70.0 20.0)
  end
  begin
     id 5 
     name ltoes
     direction 1.53575e-011 -4.21994e-011 1   
     length 1.05543   
     axis -90 7.62852e-016 20   XYZ
    dof rx
    limits (-90.0 20.0)
  end
  begin
     id 6 
     name rhipjoint
     direction -0.489018 -0.800347 0.346851   
     length 2.27268  
     axis 0 0 0  XYZ 
  end
  begin
     id 7 
     name rfemur
     direction -0.34202 -0.939693 0   
     length 7.55487   
     axis 0 0 -20   XYZ
    dof rx ry rz
    limits (-160.0 20.0)
           (-70.0 70.0)
           (-70.0 60.0)
  end
  begin
     id 8 
     name rtibia
     direction -0.34202 -0.939693 0   
     length 7.78969   
     axis 0 0 -20   XYZ
    dof rx
    limits (-10.0 170.0)
 end
 begin
     id 9 
     name rfoot
     direction -0.0859318 -0.236096 0.967923   
     length 2.19143  
     axis -90 -7.62852e-016 -20   XYZ
    dof rx rz
    limits (-45.0 90.0)
           (-20.0 70.0)
  end
  begin
     id 10 
     name rtoes
     direction -1.53538e-011 -4.21989e-011 1   
     length 1.09845   
     axis -90 -7.62852e-016 -20   XYZ
    dof rx
    limits (-90.0 20.0)
  end
  begin
     id 11 
     name lowerback
     direction -0.00762546 0.998978 -0.0445553   
     length 1.98161   
     axis 0 0 0   XYZ
    dof rx ry rz
    limits (-20.0 45.0)
           (-30.0 30.0)
           (-30.0 30.0)
  end
  begin
     id 12 
     name upperback
     direction 0.0422361 0.998867 -0.0219156   
     length 1.97558   
     axis 0 0 0   XYZ
    dof rx ry rz
    limits (-20.0 45.0)
           (-30.0 30.0)
           (-30.0 30.0)
  end
  begin
     id 13 
     name thorax
     direction 0.0442465 0.999021 7.47603e-005   
     length 1.97799   
     axis 0 0 0   XYZ
    dof rx ry rz
    limits (-20.0 45.0)
           (-30.0 30.0)
           (-30.0 30.0)
  end
  begin
     id 14 
     name lowerneck
     direction 0.00312169 0.984641 0.174564   
     length 1.78995   
     axis 0 0 0   XYZ
    dof rx ry rz
    limits (-20.0 45.0)
           (-30.0 30.0)
           (-30.0 30.0)
  end
  begin
     id 15 
     name upperneck
     direction -0.0383028 0.985255 -0.166749   
     length 1.83053   
     axis 0 0 0   XYZ
    dof rx ry rz
    limits (-20.0 45.0)
           (-30.0 30.0)
           (-30.0 30.0)
  end
  begin
     id 16
     name head
     direction -0.0129546 0.997059 -0.0755386  
     length 1.84088  
     axis 0 0 0   XYZ
    dof rx ry rz
    limits (-20.0 45.0)
           (-30.0 30.0)
           (-30.0 30.0)
  end
  begin
     id 17 
     name lclavicle
     direction 0.912857 0.370519 -0.171488  
     length 3.51279  
     axis 0 0 0   XYZ
    dof ry rz
    limits (-20.0 10.0)
           (0.0 20.0)
  end
  begin
     id 18 
     name lhumerus
     direction 1 -4.48962e-011 3.64361e-027   
     length 4.95663   
     axis 180 -30 -90   XYZ
    dof rx ry rz
    limits (-60.0 90.0)
           (-90.0 90.0)
           (-90.0 90.0)
  end
  begin
     id 19
     name lradius
     direction 1 -4.48974e-011 5.97202e-027   
     length 3.38177   
     axis 180 -30 -90   XYZ
    dof rx
    limits (-10.0 170.0)
  end
  begin
     id 20
     name lwrist
     direction 1 -4.4896e-011 9.83288e-027   
     length 1.69088   
     axis -9.31221e-015 90 90   XYZ
    dof ry
    limits (-180.0 0.0)
 end
  begin
     id 21 
     name lhand
     direction 1 -4.4902e-011 1.96551e-026   
     length 0.662909   
     axis -1.25475e-014 90 90   XYZ
    dof rx rz
    limits (-90.0 90.0)
           (-45.0 45.0)
  end
  begin
     id 22 
     name lfingers
     direction 1 -4.48971e-011 3.93277e-026   
     length 0.534454   
     axis -2.50945e-014 90 90   XYZ
    dof rx
    limits (0.0 90.0)
  end
  begin
     id 23
     name lthumb
     direction 0.707107 -6.34933e-011 0.707107   
     length 0.767373   
     axis -90 45 -4.80359e-014   XYZ
    dof rx rz
    limits (-45.0 45.0)
           (-45.0 45.0)
  end
  begin
     id 24 
     name rclavicle
     direction -0.900919 0.395364 -0.178976   
     length 3.40627  
     axis 0 0 0   XYZ 
    dof ry rz
    limits (-10.0 20.0)
           (-20.0 0.0)
  end
  begin
     id 25 
     name rhumerus
     direction -1 -4.48969e-011 1.03875e-027  
     length 5.08365   
     axis 180 30 90   XYZ
    dof rx ry rz
    limits (-90.0 60.0)
           (-90.0 90.0)
           (-90.0 90.0)
  end
  begin
     id 26 
     name rradius
     direction -1 -4.48951e-011 5.02733e-027   
     length 3.35984   
     axis 180 30 90   XYZ
    dof rx
    limits (-10.0 170.0)
  end
  begin
     id 27 
     name rwrist
     direction -1 -4.49011e-011 9.82828e-027   
     length 1.67992   
     axis -9.31221e-015 -90 -90   XYZ
    dof ry
    limits (-180.0 0.0)
  end
  begin
     id 28
     name rhand
     direction -1 -4.48894e-011 1.96774e-026   
     length 0.820764   
     axis -1.25475e-014 -90 -90   XYZ
    dof rx rz
    limits (-90.0 90.0)
           (-45.0 45.0)
  end
  begin
     id 29
     name rfingers
     direction -1 -4.49095e-011 3.92833e-026   
     length 0.661721   
     axis -2.50945e-014 -90 -90   XYZ
    dof rx
    limits (0.0 90.0)
  end
  begin
     id 30
     name rthumb
     direction -0.707107 -6.34881e-011 0.707107   
     length 0.950103   
     axis -90 -45 4.80359e-014   XYZ
    dof rx rz
    limits (-45.0 45.0)
           (-45.0 45.0)
  end
:hierarchy
  begin
    root lhipjoint rhipjoint lowerback
    lhipjoint lfemur
    lfemur ltibia
    ltibia lfoot
    lfoot ltoes
    rhipjoint rfemur
    rfemur rtibia
    rtibia rfoot
    rfoot rtoes
    lowerback upperback
    upperback thorax
    thorax lowerneck lclavicle rclavicle
    lowerneck upperneck
    upperneck head
    lclavicle lhumerus
    lhumerus lradius
    lradius lwrist
    lwrist lhand lthumb
    lhand lfingers
    rclavicle rhumerus
    rhumerus rradius
    rradius rwrist
    rwrist rhand rthumb
    rhand rfingers
  end

#!OML:ASF I:\golf\golf\golf 2\Subject 1\2002-09-07\Subject1.ASF
:FULLY-SPECIFIED
:DEGREES
31
root -6.65674 17.8769 0.230015 -117.944 85.0873 -134.53
lowerback 2.23725 1.64217 -1.35683
upperback 4.11995 2.24109 4.87526
thorax 2.75129 1.0692 5.82562
lowerneck -14.04 -3.41055 1.79764
upperneck 40.7904 -2.48604 -2.68155
head 17.1795 -0.456793 -1.79028
rclavicle -7.95139e-016 -6.36111e-015
rhumerus -5.61854 0.0524979 -99.0579
rradius 19.8957
rwrist -29.6783
rhand -13.7872 -4.36277
rfingers 7.12502
rthumb 12.3343 -33.9789
lclavicle -7.95139e-016 -6.36111e-015
lhumerus -13.6484 -46.9891 111.715
lradius 32.4848
lwrist 47.9555
lhand -9.63636 67.6568
lfingers 7.12502
lthumb -163.666 83.011
rfemur -25.8944 -0.714213 11.2413
rtibia 24.6502
rfoot -7.91286 -14.7245
rtoes -5.56091
lfemur -27.6833 4.22931 -6.27667
ltibia 25.1367
lfoot -8.80684 1.34998
ltoes -23.2203
32
root -6.65721 17.8775 0.229683 -117.933 85.0975 -134.518
lowerback 2.26917 1.64153 -1.40403
upperback 4.10764 2.24102 4.91517
thorax 2.71767 1.06848 5.89322
lowerneck -14.034 -3.41072 1.74755
upperneck 40.7993 -2.45367 -2.71411
head 17.1847 -0.454974 -1.79024
rclavicle -2.90226e-014 -5.40694e-014
rhumerus -5.67943 0.0614695 -98.9503
rradius 19.8557
rwrist -29.9888
rhand -13.6081 -4.41564
rfingers 7.12502
rthumb 12.507 -34.0214
lclavicle -2.90226e-014 -5.40694e-014
lhumerus -13.5606 -47.0795 111.684
lradius 32.4021
lwrist 48.0183
lhand -9.40266 67.7469
lfingers 7.12502
lthumb -163.441 82.9396
rfemur -25.9092 -0.748964 11.2469
rtibia 24.6705
rfoot -7.83529 -14.7189
rtoes -5.9177
lfemur -27.6788 4.26502 -6.30357
ltibia 25.1182
lfoot -8.81226 1.34036
ltoes -23.4708
33
root -6.65812 17.8785 0.228107 -118.047 85.1087 -134.647
lowerback 2.32036 1.63762 -1.48643
upperback 4.0677 2.23702 4.98115
thorax 2.6429 1.06578 6.00699
lowerneck -14.0329 -3.41251 1.6775
upperneck 40.8281 -2.40657 -2.76562
head 17.203 -0.451556 -1.79301
rclavicle -1.03368e-014 -6.52014e-014
rhumerus -5.79765 0.0788493 -98.7969
rradius 19.8385
rwrist -30.2584
rhand -13.3806 -4.41229
rfingers 7.12502
rthumb 12.7263 -34.0045
lclavicle -1.03368e-014 -6.52014e-014
lhumerus -13.5157 -47.2129 111.732
lradius 32.3186
lwrist 48.1498
lhand -9.05241 67.7508
lfingers 7.12502
lthumb -163.104 82.9642
rfemur -25.9384 -0.774816 11.2317
rtibia 24.6886
rfoot -7.83283 -14.7179
rtoes -6.10443
lfemur -27.6936 4.29465 -6.33896
ltibia 25.1046
lfoot -8.78213 1.30041
ltoes -23.5144
34
root -6.65886 17.878 0.228086 -118.519 85.1362 -135.14
lowerback 2.34373 1.63751 -1.56825
upperback 4.03887 2.23684 5.00223
thorax 2.5964 1.06439 6.07433
lowerneck -14.026 -3.40797 1.64693
upperneck 40.8348 -2.37199 -2.80074
head 17.2063 -0.446037 -1.7971
rclavicle -1.47101e-014 -3.81667e-014
rhumerus -5.83788 -0.154599 -98.739
rradius 19.7649
rwrist -30.6002
rhand -13.311 -4.24505
rfingers 7.12502
rthumb 12.7934 -33.833
lclavicle -1.47101e-014 -3.81667e-014
lhumerus -13.5161 -47.4582 111.738
lradius 32.3378
lwrist 48.4873
lhand -8.67284 67.6411
lfingers 7.12502
lthumb -162.739 83.1055
rfemur -25.9608 -0.792442 11.1767
rtibia 24.6893
rfoot -7.88478 -14.7264
rtoes -6.12486
lfemur -27.725 4.24153 -6.37679
ltibia 25.1123
lfoot -8.75023 1.31017
ltoes -23.3139
35
root -6.65948 17.8775 0.228914 -118.905 85.1163 -135.537
lowerback 2.34649 1.64263 -1.55278
upperback 4.03474 2.24392 4.99949
thorax 2.59032 1.06861 6.06226
lowerneck -14.0371 -3.41343 1.64373
upperneck 40.8427 -2.36866 -2.82144
head 17.2133 -0.447227 -1.8056
rclavicle -5.56597e-015 7.15625e-015
rhumerus -5.9292 0.15135 -98.7375
rradius 19.9148
rwrist -31.7721
rhand -13.6452 -4.13273
rfingers 7.12502
rthumb 12.4711 -33.7406
lclavicle -5.56597e-015 7.15625e-015
lhumerus -13.5272 -47.8185 111.71
lradius 32.4567
lwrist 49.0298
lhand -8.4974 67.8696
lfingers 7.12502
lthumb -162.57 82.8919
rfemur -25.9677 -0.818078 11.1746
rtibia 24.6974
rfoot -7.94691 -14.7348
rtoes -5.9038
lfemur -27.7555 4.22577 -6.38136
ltibia 25.1083
lfoot -8.75169 1.3053
ltoes -23.4674
36
root -6.66016 17.8773 0.22843 -118.947 85.0597 -135.577
lowerback 2.33666 1.63424 -1.48174
upperback 4.05117 2.23367 5.01751
thorax 2.61587 1.06499 6.04171
lowerneck -14.0445 -3.40403 1.63744
upperneck 40.8265 -2.34345 -2.84721
head 17.2067 -0.442327 -1.81152
rclavicle -1.15295e-014 -3.81667e-014
rhumerus -6.00131 0.544087 -98.7199
rradius 20.0261
rwrist -32.6506
rhand -13.7788 -4.07413
rfingers 7.12502
rthumb 12.3424 -33.6898
lclavicle -1.15295e-014 -3.81667e-014
lhumerus -13.5004 -48.1776 111.673
lradius 32.5829
lwrist 49.5505
lhand -8.5392 68.2706
lfingers 7.12502
lthumb -162.61 82.4873
rfemur -25.9689 -0.83793 11.221
rtibia 24.7255
rfoot -8.13877 -14.7295
rtoes -4.64008
lfemur -27.7649 4.27464 -6.35375
ltibia 25.0849
lfoot -8.77706 1.24219
ltoes -23.833
37
root -6.66086 17.8772 0.227353 -119.059 85.0343 -135.676
lowerback 2.33644 1.61078 -1.47255
upperback 4.06919 2.20283 5.04212
thorax 2.63784 1.04925 6.06345
lowerneck -14.0411 -3.36161 1.62189
upperneck 40.7798 -2.26952 -2.87203
head 17.1824 -0.420782 -1.80599
rclavicle -2.22639e-014 -1.11319e-014
rhumerus -6.01999 0.606461 -98.7024
rradius 19.9628
rwrist -32.8284
rhand -13.5655 -4.12414
rfingers 7.12502
rthumb 12.5481 -33.7273
lclavicle -2.22639e-014 -1.11319e-014
lhumerus -13.4633 -48.357 111.637
lradius 32.6527
lwrist 49.8173
lhand -8.52031 68.4388
lfingers 7.12502
lthumb -162.592 82.3207
rfemur -25.9647 -0.819048 11.223
rtibia 24.7549
rfoot -8.40582 -14.7471
rtoes -3.0169
lfemur -27.7501 4.27328 -6.34045
ltibia 25.0625
lfoot -8.81283 1.21504
ltoes -23.81
38
root -6.66172 17.8753 0.225662 -119.856 85.0232 -136.502
lowerback 2.3011 1.5845 -1.49661
upperback 4.07237 2.16697 5.04464
thorax 2.66435 1.02985 6.08166
lowerneck -14.0736 -3.34478 1.60834
upperneck 40.7829 -2.23371 -2.88937
head 17.194 -0.411015 -1.80596
rclavicle 1.90833e-014 1.74931e-014
rhumerus -5.97523 0.266128 -98.6908
rradius 19.7817
rwrist -32.5652
rhand -13.379 -4.23483
rfingers 7.12502
rthumb 12.7278 -33.8269
lclavicle 1.90833e-014 1.74931e-014
lhumerus -13.4356 -48.521 111.636
lradius 32.6996
lwrist 49.9106
lhand -7.55692 68.7523
lfingers 7.12502
lthumb -161.665 82.0918
rfemur -25.9975 -0.831457 11.1676
rtibia 24.7869
rfoot -11.1218 -13.9736
rtoes 23.52
lfemur -27.7919 4.19775 -6.37346
ltibia 25.0318
lfoot -8.81402 1.21256
ltoes -23.8859
39
root -6.66266 17.8736 0.224542 -120.609 85.0028 -137.307
lowerback 2.21636 1.56311 -1.48449
upperback 4.08951 2.13684 5.02691
thorax 2.73433 1.01333 6.05984
lowerneck -14.1344 -3.34706 1.61884
upperneck 40.8072 -2.24273 -2.8875
head 17.2229 -0.412567 -1.81066
rclavicle 3.57812e-015 1.19271e-014
rhumerus -5.96018 0.115975 -98.7077
rradius 19.7368
rwrist -32.4878
rhand -13.3316 -4.22696
rfingers 7.12502
rthumb 12.7736 -33.8162
lclavicle 3.57812e-015 1.19271e-014
lhumerus -13.364 -48.7785 111.592
lradius 32.7348
lwrist 50.1463
lhand -5.86511 69.386
lfingers 7.12502
lthumb -160.038 81.6193
rfemur -26.0513 -0.851322 11.1248
rtibia 24.818
rfoot -8.72207 -14.8129
rtoes 1.06098
lfemur -27.8559 4.10479 -6.39233
ltibia 24.9965
lfoot -8.78555 1.23505
ltoes -24.1928
40
root -6.66314 17.8744 0.224678 -120.643 85.0134 -137.353
lowerback 2.154 1.57743 -1.46712
upperback 4.13543 2.15457 4.99653
thorax 2.81668 1.02068 6.0214
lowerneck -14.1848 -3.34546 1.62369
upperneck 40.7763 -2.27322 -2.83303
head 17.2185 -0.419384 -1.79302
rclavicle 1.78906e-014 1.82882e-014
rhumerus -5.9044 -0.317517 -98.7915
rradius 19.7094
rwrist -32.4093
rhand -13.227 -4.11411
rfingers 7.12502
rthumb 12.8744 -33.697
lclavicle 1.78906e-014 1.82882e-014
lhumerus -13.2849 -49.1166 111.521
lradius 32.7812
lwrist 50.4056
lhand -5.89898 69.582
lfingers 7.12502
lthumb -160.071 81.4199
rfemur -26.0762 -0.851242 11.1157
rtibia 24.8348
rfoot -11.4933 -13.9403
rtoes 24.8899
lfemur -27.8588 4.11358 -6.40535
ltibia 24.9722
lfoot -8.76716 1.23792
ltoes -24.2451
41
root -6.66296 17.8753 0.224809 -120.683 85.0267 -137.378
lowerback 2.16768 1.58047 -1.54785
upperback 4.15924 2.15892 5.0356
thorax 2.82957 1.01992 6.10936
lowerneck -14.1634 -3.33798 1.54177
upperneck 40.7114 -2.25141 -2.80983
head 17.18 -0.423153 -1.7622
rclavicle -3.61788e-014 -8.34896e-014
rhumerus -5.90077 -0.688162 -98.8059
rradius 19.769
rwrist -32.7204
rhand -13.1686 -4.22954
rfingers 7.12502
rthumb 12.9307 -33.8089
lclavicle -3.61788e-014 -8.34896e-014
lhumerus -13.2313 -49.2316 111.558
lradius 32.7733
lwrist 49.9018
lhand -6.54708 69.3865
lfingers 7.12502
lthumb -160.694 81.5518
rfemur -26.0624 -0.902564 11.1211
rtibia 24.8331
rfoot -11.0581 -14.085
rtoes 21.4734
lfemur -27.8423 4.19011 -6.44262
ltibia 24.9587
lfoot -8.74944 1.17076
ltoes -24.3077
42
root -6.66283 17.8755 0.224544 -120.761 85.0073 -137.433
lowerback 2.21201 1.54466 -1.63711
upperback 4.1678 2.11246 5.12113
thorax 2.81373 0.994107 6.25035
lowerneck -14.1456 -3.3128 1.45414
upperneck 40.6923 -2.16094 -2.86815
head 17.1692 -0.408874 -1.75611
rclavicle -1.31198e-014 -3.18055e-015
rhumerus -5.76351 -1.66196 -98.826
rradius 19.4878
rwrist -32.2367
rhand -12.9203 -4.18458
rfingers 7.12502
rthumb 13.17 -33.7486
lclavicle -1.31198e-014 -3.18055e-015
lhumerus -13.2031 -49.2459 111.659
lradius 32.762
lwrist 49.4867
lhand -5.87658 69.8367
lfingers 7.12502
lthumb -160.049 81.1674
rfemur -26.0269 -0.928859 11.1337
rtibia 24.8209
rfoot -10.9234 -14.0603
rtoes 20.7653
lfemur -27.8201 4.20965 -6.43749
ltibia 24.949
lfoot -8.7299 1.11823
ltoes -24.0938
